ply
format ascii 1.0
comment VCGLIB generated
element vertex 1024
property float x
property float y
property float z
end_header
-6.536997 2.693828 0.8735041
-6.747485 2.2894628 0.8735041
-6.916494 1.8660791 0.8735041
-7.042329 1.4279248 0.8735041
-7.1237354 0.97937983 0.8735041
-7.1598825 0.5249463 0.8735041
-7.1504245 0.06918457 0.8735041
-7.095444 -0.38335449 0.8735041
-6.9954977 -0.8281348 0.8735041
-6.851587 -1.2606933 0.8735041
-6.665156 -1.6766943 0.8735041
-6.4380665 -2.0719774 0.8735041
-6.172602 -2.442573 0.8735041
-5.871411 -2.7847753 0.8735041
-5.5375195 -3.0951512 0.8735041
-5.1742773 -3.3705957 0.8735041
-4.785312 -3.6083398 0.8735041
-4.3745313 -3.8060107 0.8735041
-3.946045 -3.961621 0.8735041
-3.5041454 -4.073618 0.8735041
-3.0532618 -4.140874 0.8735041
-2.5979173 -4.162715 0.8735041
-2.1426733 -4.138931 0.8735041
-1.69208 -4.069746 0.8735041
-1.2506689 -3.9558642 0.8735041
-0.82285154 -3.7984276 0.8735041
-0.41291746 -3.5990038 0.8735041
-0.02496826 -3.3595996 0.8735041
0.3370996 -3.0826073 0.8735041
0.66965944 -2.7708106 0.8735041
0.9693823 -2.427324 0.8735041
1.2332641 -2.0555956 0.8735041
1.4586645 -1.6593541 0.8735041
1.6433203 -1.2425575 0.8735041
1.785382 -0.8093911 0.8735041
1.8834264 -0.3641919 0.8735041
1.9364709 0.08858093 0.8735041
1.9439856 0.5443848 0.8735041
1.9058948 0.9986621 0.8735041
1.8225806 1.4468505 0.8735041
1.6948743 1.8844677 0.8735041
1.5240588 2.3071191 0.8735041
1.3118445 2.710581 0.8735041
1.0603577 3.0908055 0.8735041
0.7721191 3.4439843 0.8735041
0.4500195 3.766582 0.8735041
0.09727783 4.0553513 0.8735041
-0.28256348 4.307417 0.8735041
-0.6857031 4.520244 0.8735041
-1.1081005 4.691704 0.8735041
-1.5455176 4.820073 0.8735041
-1.9935839 4.9040723 0.8735041
-2.4478002 4.9428515 0.8735041
-2.9036133 4.9360304 0.8735041
-3.3564696 4.8836718 0.8735041
-3.8018162 4.7863083 0.8735041
-4.2352 4.644902 0.8735041
-4.652275 4.460879 0.8735041
-5.048867 4.236084 0.8735041
-5.420996 3.9727635 0.8735041
-5.7649317 3.6735692 0.8735041
-6.077236 3.3414793 0.8735041
-6.35478 2.9798338 0.8735041
-6.59478 2.5922508 0.8735041
-6.051416 2.4093065 0.8735041
-6.2358985 2.054912 0.87350416
-6.384023 1.6838526 0.8735041
-6.494302 1.2998388 0.8735041
-6.5656443 0.9067236 0.87350416
-6.597329 0.5084521 0.8735041
-6.589038 0.10900879 0.87350416
-6.5408545 -0.28760254 0.8735041
-6.4532566 -0.677417 0.8735041
-6.3271337 -1.0565234 0.87350416
-6.1637354 -1.4211133 0.8735041
-5.9647164 -1.7675488 0.8735041
-5.7320504 -2.0923438 0.87350416
-5.468086 -2.3922608 0.8735041
-5.175454 -2.664282 0.8735041
-4.8570995 -2.9056885 0.8735041
-4.516201 -3.1140528 0.8735041
-4.1561813 -3.2872949 0.8735041
-3.7806494 -3.4236767 0.8735041
-3.3933544 -3.521831 0.87350416
-2.9981983 -3.5807812 0.8735041
-2.5991187 -3.5999217 0.87350416
-2.200132 -3.579077 0.8735041
-1.8052222 -3.5184424 0.8735041
-1.4183618 -3.4186375 0.87350416
-1.0434107 -3.2806494 0.8735041
-0.68413574 -3.105874 0.87350416
-0.3441284 -2.8960497 0.87350416
-0.0268042 -2.653286 0.87350416
0.26465818 -2.3800244 0.87350416
0.5273413 -2.0789843 0.8735041
0.75861573 -1.7532016 0.8735041
0.95615965 -1.405919 0.8735041
1.1179968 -1.0406296 0.87350416
1.2425011 -0.6609925 0.8735041
1.3284314 -0.27080962 0.8735041
1.3749206 0.12601043 0.8735041
1.3815075 0.52548337 0.8735041
1.3481225 0.923623 0.8735041
1.2751037 1.3164258 0.87350416
1.1631799 1.6999658 0.87350416
1.0134753 2.0703905 0.87350416
0.8274853 2.423994 0.87350416
0.60707515 2.7572315 0.8735041
0.354458 3.0667627 0.8735041
0.07216065 3.349492 0.87350416
-0.23698974 3.6025782 0.8735041
-0.56989014 3.823491 0.8735041
-0.9232129 4.0100193 0.87350416
-1.2934082 4.160293 0.87350416
-1.6767725 4.2727976 0.87350416
-2.0694678 4.346416 0.8735041
-2.4675536 4.380405 0.87350416
-2.8670409 4.3744235 0.87350416
-3.2639306 4.32854 0.87350416
-3.654243 4.243203 0.87350416
-4.0340724 4.119272 0.87350416
-4.3996043 3.957993 0.8735041
-4.7471876 3.7609715 0.8735041
-5.07333 3.5302 0.87350416
-5.3747654 3.2679687 0.8735041
-5.6484766 2.9769237 0.8735041
-5.8917184 2.6599708 0.87350416
-6.1020555 2.3202832 0.87350416
-5.6653953 2.18312 0.873504
-5.829194 1.8684472 0.87350416
-5.9607077 1.5389843 0.873504
-6.058633 1.1980176 0.8735041
-6.1219773 0.8489697 0.8735041
-6.1501074 0.49534178 0.8735041
-6.142744 0.14067383 0.873504
-6.0999656 -0.21147949 0.87350416
-6.022187 -0.55759764 0.8735041
-5.9102 -0.89420897 0.87350416
-5.7651267 -1.2179296 0.8735041
-5.588408 -1.5255322 0.87350416
-5.381826 -1.8139257 0.8735041
-5.147446 -2.0802245 0.87350416
-4.887622 -2.3217528 0.8735041
-4.604946 -2.5360937 0.8735041
-4.3022656 -2.7211084 0.873504
-3.9825976 -2.8749268 0.8735041
-3.6491601 -2.9960253 0.87350416
-3.305283 -3.0831738 0.873504
-2.954419 -3.1355126 0.873504
-2.6000757 -3.1525147 0.87350416
-2.2458105 -3.1340039 0.8735041
-1.8951684 -3.0801659 0.8735041
-1.5516698 -2.9915478 0.8735041
-1.2187524 -2.8690283 0.8735041
-0.89975095 -2.7138426 0.8735041
-0.597854 -2.527539 0.8735041
-0.31610107 -2.3119922 0.8735041
-0.057307128 -2.0693555 0.873504
0.17593017 -1.8020686 0.8735041
0.38127685 -1.5127981 0.8735041
0.5566821 -1.2044436 0.8735041
0.70037717 -0.8801005 0.8735041
0.81092405 -0.54301864 0.8735041
0.88722044 -0.19657302 0.8735041
0.92850095 0.15576614 0.8735041
0.93434936 0.51046383 0.8735041
0.904707 0.8639746 0.8735041
0.839873 1.2127441 0.87350416
0.7404931 1.5532861 0.873504
0.60757077 1.8821924 0.8735041
0.44242674 2.1961572 0.8735041
0.24672607 2.4920409 0.8735041
0.022424316 2.766875 0.8735041
-0.22822997 3.017915 0.8735041
-0.50272703 3.2426317 0.8735041
-0.7983105 3.4387841 0.8735041
-1.1120263 3.6044042 0.8735041
-1.4407275 3.737827 0.8735041
-1.7811182 3.8377197 0.8735041
-2.1297948 3.9030907 0.8735041
-2.4832544 3.9332664 0.8735041
-2.8379638 3.927959 0.873504
-3.190366 3.8872168 0.873504
-3.5369287 3.8114452 0.873504
-3.8741796 3.7014062 0.873504
-4.19874 3.558208 0.873504
-4.507358 3.3832762 0.87350416
-4.7969384 3.1783643 0.873504
-5.0645895 2.945532 0.8735041
-5.307617 2.6871092 0.873504
-5.5235934 2.4056835 0.87350416
-5.710356 2.1040723 0.873504
-5.350459 1.9985839 0.8735041
-5.4973874 1.7163233 0.8735041
-5.615361 1.420791 0.87350416
-5.703193 1.1149414 0.8735041
-5.7600193 0.80184567 0.8735041
-5.785254 0.48463866 0.87350416
-5.7786474 0.16650878 0.87350416
-5.740268 -0.14937988 0.8735041
-5.670508 -0.4598486 0.8735041
-5.570049 -0.7617871 0.8735041
-5.439917 -1.0521728 0.87350416
-5.281401 -1.3280908 0.87350416
-5.0960984 -1.5867773 0.87350416
-4.8858542 -1.8256445 0.87350416
-4.652793 -2.0422997 0.8735041
-4.3992333 -2.2345655 0.8735041
-4.1277246 -2.4005225 0.8735041
-3.8409812 -2.5385058 0.8735041
-3.5418847 -2.647124 0.8735041
-3.2334278 -2.7252977 0.8735041
-2.9187012 -2.772251 0.8735041
-2.6008544 -2.7874951 0.8735041
-2.2830787 -2.7708886 0.8735041
-1.9685522 -2.7226024 0.8735041
-1.6604321 -2.6431055 0.8735041
-1.3618017 -2.533213 0.8735041
-1.0756543 -2.3940086 0.8735041
-0.80485594 -2.2268944 0.8735041
-0.5521216 -2.0335498 0.8735041
-0.31998292 -1.8159063 0.8735041
-0.1107666 -1.5761439 0.8735041
0.07343262 -1.3166668 0.8735041
0.23076904 -1.0400715 0.8735041
0.35966307 -0.7491346 0.8735041
0.45882568 -0.4467708 0.8735041
0.5272656 -0.13600738 0.8735041
0.56429195 0.1800421 0.8735041
0.56953853 0.49820313 0.8735041
0.5429492 0.8153076 0.8735041
0.48479247 1.1281543 0.8735041
0.3956494 1.4336278 0.8735041
0.276416 1.7286524 0.8735041
0.12828125 2.0102782 0.8735041
-0.047263183 2.2756934 0.8735041
-0.2484619 2.5222216 0.8735041
-0.47329834 2.7473974 0.8735041
-0.71952146 2.9489696 0.8735041
-0.9846655 3.1249218 0.8735041
-1.2660693 3.2734814 0.8735041
-1.5609131 3.393164 0.8735041
-1.8662475 3.4827733 0.8735041
-2.179011 3.5414014 0.8735041
-2.4960668 3.5684717 0.8735041
-2.814243 3.5637157 0.8735041
-3.1303465 3.527163 0.8735041
-3.4412158 3.459204 0.8735041
-3.7437303 3.360498 0.8735041
-4.034863 3.232046 0.87350416
-4.311694 3.075127 0.87350416
-4.571455 2.891328 0.8735041
-4.811533 2.6824706 0.8735041
-5.029531 2.4506688 0.8735041
-5.223262 2.1982226 0.8735041
-5.390786 1.9276806 0.8735041
-5.0880466 1.8448291 0.8735041
-5.220913 1.5895703 0.87350416
-5.3275976 1.3223144 0.873504
-5.407036 1.0457226 0.8735041
-5.458418 0.762583 0.8735041
-5.4812403 0.47572264 0.8735041
-5.4752684 0.18803222 0.8735041
-5.4405613 -0.0976416 0.8735041
-5.3774705 -0.3784033 0.8735041
-5.286626 -0.65145993 0.8735041
-5.1689453 -0.9140527 0.8735041
-5.025591 -1.1635742 0.873504
-4.8580174 -1.3975195 0.8735041
-4.6678953 -1.6135303 0.8735041
-4.457129 -1.809458 0.8735041
-4.227827 -1.9833251 0.8735041
-3.9822948 -2.133408 0.8735041
-3.7229881 -2.2581835 0.8735041
-3.4525096 -2.356416 0.8735041
-3.1735594 -2.4271092 0.873504
-2.8889453 -2.4695654 0.873504
-2.6015038 -2.4833543 0.8735041
-2.3141308 -2.468335 0.873504
-2.0296948 -2.4246678 0.8735041
-1.7510546 -2.3527782 0.8735041
-1.480996 -2.2533984 0.8735041
-1.2222265 -2.1275146 0.873504
-0.97733396 -1.9763867 0.873504
-0.7487793 -1.8015428 0.873504
-0.53885007 -1.6047208 0.873504
-0.34964842 -1.3878967 0.873504
-0.18307617 -1.1532449 0.87350416
-0.040791016 -0.9031125 0.87350416
0.075773925 -0.64001024 0.873504
0.16544922 -0.3665744 0.873504
0.22734131 -0.08554275 0.8735041
0.26082274 0.20026931 0.87350416
0.26556885 0.48799804 0.873504
0.24152099 0.77475584 0.87350416
0.18892822 1.0576757 0.8735041
0.10831787 1.3339208 0.87350416
0.00049072265 1.6007178 0.8735041
-0.13346924 1.8554052 0.87350416
-0.29222167 2.09542 0.873504
-0.4741699 2.3183641 0.8735041
-0.67749757 2.521997 0.8735041
-0.900166 2.704287 0.87350416
-1.139939 2.8634033 0.873504
-1.3944213 2.9977539 0.8735041
-1.6610571 3.1059864 0.8735041
-1.9371777 3.1870165 0.873504
-2.2200196 3.2400389 0.873504
-2.5067406 3.2645166 0.873504
-2.7944775 3.2602148 0.873504
-3.0803368 3.227163 0.8735041
-3.3614647 3.165703 0.8735041
-3.635034 3.0764403 0.8735041
-3.8983154 2.9602783 0.8735041
-4.148662 2.818374 0.8735041
-4.3835692 2.6521533 0.8735041
-4.6006784 2.4632862 0.873504
-4.797822 2.253657 0.873504
-4.9730177 2.025366 0.873504
-5.1245165 1.780708 0.8735041
-4.8655224 1.7144433 0.8735041
-4.9864745 1.4820849 0.8735041
-5.0835886 1.2388036 0.8735041
-5.155898 0.9870312 0.8735041
-5.2026706 0.729292 0.8735041
-5.2234473 0.46816406 0.8735041
-5.218013 0.2062744 0.8735041
-5.186421 -0.05376465 0.8735041
-5.128989 -0.30933592 0.8735041
-5.0462985 -0.5578955 0.8735041
-4.939165 -0.7969336 0.873504
-4.8086767 -1.0240674 0.873504
-4.6561327 -1.2370263 0.8735041
-4.483066 -1.433662 0.8735041
-4.291206 -1.6120068 0.8735041
-4.0824757 -1.7702832 0.873504
-3.8589745 -1.9068944 0.8735041
-3.6229296 -2.0204833 0.8735041
-3.3767138 -2.1098974 0.873504
-3.122788 -2.174253 0.873504
-2.8637059 -2.2129004 0.8735041
-2.6020532 -2.225449 0.8735041
-2.3404639 -2.2117822 0.873504
-2.081543 -2.1720312 0.8735041
-1.8279003 -2.1065917 0.8735041
-1.5820678 -2.016123 0.8735041
-1.3465112 -1.9015331 0.8735041
-1.1235888 -1.7639707 0.8735041
-0.91553706 -1.6048063 0.8735041
-0.7244433 -1.4256408 0.8735041
-0.55221677 -1.2282689 0.8735041
-0.40058592 -1.0146675 0.8735041
-0.27106446 -0.7869751 0.8735041
-0.16495849 -0.5474759 0.873504
-0.083327636 -0.2985701 0.8735041
-0.026989745 -0.04275009 0.8735041
0.0034912108 0.21742156 0.8735041
0.0078100585 0.47933105 0.8735041
-0.014077148 0.7403662 0.8735041
-0.061955564 0.99790525 0.873504
-0.13533448 1.2493701 0.8735041
-0.23348877 1.4922363 0.873504
-0.35543212 1.7240722 0.873504
-0.49993896 1.9425585 0.8735041
-0.6655664 2.1455028 0.8735041
-0.85065186 2.3308692 0.8735041
-1.0533447 2.4968016 0.873504
-1.2716088 2.6416454 0.8735041
-1.5032617 2.7639403 0.873504
-1.7459766 2.8624609 0.8735041
-1.9973266 2.9362254 0.8735041
-2.2547925 2.984492 0.8735041
-2.5157933 3.0067773 0.8735041
-2.7777147 3.0028565 0.8735041
-3.0379295 2.9727685 0.873504
-3.293833 2.9168212 0.8735041
-3.5428662 2.8355713 0.8735041
-3.782529 2.729829 0.8735041
-4.010415 2.6006494 0.8735041
-4.224248 2.4493456 0.8735041
-4.4218845 2.2774217 0.8735041
-4.601338 2.0865967 0.8735041
-4.7608204 1.8787891 0.8735041
-4.8987255 1.6560742 0.8735041
-4.6740136 1.6022265 0.8735041
-4.784707 1.38958 0.87350416
-4.873584 1.1669335 0.8735041
-4.939756 0.93651366 0.8735041
-4.9825635 0.7006348 0.87350416
-5.001577 0.46166015 0.87350416
-4.9966016 0.22199218 0.87350416
-4.967685 -0.015996093 0.8735041
-4.915127 -0.24989745 0.8735041
-4.839448 -0.47736326 0.87350416
-4.741406 -0.69613767 0.87350416
-4.621982 -0.90400875 0.8735041
-4.482378 -1.0988965 0.87350416
-4.323994 -1.2788525 0.87350416
-4.148408 -1.4420751 0.8735041
-3.9573827 -1.5869238 0.8735041
-3.752832 -1.7119482 0.8735041
-3.5368114 -1.8158984 0.87350416
-3.3114793 -1.8977343 0.87350416
-3.0790966 -1.9566308 0.87350416
-2.8419824 -1.9920019 0.87350416
-2.6025293 -2.0034864 0.87350416
-2.3631248 -1.9909766 0.87350416
-2.126167 -1.9545947 0.87350416
-1.8940356 -1.8947129 0.87350416
-1.6690551 -1.8119185 0.87350416
-1.4534789 -1.7070465 0.87350416
-1.2494677 -1.5811473 0.87350416
-1.0590625 -1.4354829 0.87350416
-0.8841772 -1.2715151 0.87350416
-0.7265576 -1.0908841 0.87350416
-0.5877856 -0.8954002 0.87350416
-0.4692529 -0.6870202 0.87350416
-0.37214598 -0.46783537 0.87350416
-0.2974414 -0.24004166 0.87350416
-0.2458789 -0.0059202574 0.87350416
-0.21798584 0.23218383 0.87350416
-0.2140332 0.47187987 0.87350416
-0.23406494 0.7107763 0.87350416
-0.2778784 0.9464697 0.87350416
-0.34503663 1.1766015 0.87350416
-0.4348657 1.3988671 0.87350416
-0.54646486 1.61104 0.87350416
-0.6787158 1.810996 0.87350416
-0.8302905 1.9967235 0.8735041
-0.99968016 2.166367 0.87350416
-1.1851807 2.3182323 0.87350416
-1.3849292 2.450781 0.87350416
-1.5969336 2.562705 0.87350416
-1.8190625 2.6528711 0.87350416
-2.0490918 2.7203808 0.87350416
-2.2847216 2.7645507 0.87350416
-2.523584 2.7849462 0.87350416
-2.763291 2.7813573 0.87350416
-3.0014355 2.753828 0.87350416
-3.2356348 2.702622 0.87350416
-3.46354 2.6282616 0.87350416
-3.6828759 2.5314844 0.87350416
-3.8914354 2.4132714 0.87350416
-4.0871286 2.2747948 0.87350416
-4.2679977 2.1174512 0.87350416
-4.432236 1.9428173 0.87350416
-4.5781884 1.7526367 0.87350416
-4.7043943 1.5488086 0.87350416
-4.5070653 1.5044092 0.8735041
-4.6088133 1.3089404 0.8735041
-4.690508 1.1042774 0.8735041
-4.751338 0.89247555 0.8735041
-4.7906885 0.6756543 0.8735041
-4.808164 0.45598632 0.8735041
-4.8035936 0.2356787 0.8735041
-4.7770166 0.016923828 0.8735041
-4.728706 -0.19808105 0.8735041
-4.6591406 -0.40717283 0.8735041
-4.5690184 -0.6082666 0.8735041
-4.4592433 -0.7993457 0.8735041
-4.330918 -0.9784814 0.8735041
-4.185327 -1.1439062 0.8735041
-4.023926 -1.2939404 0.8735041
-3.8483348 -1.42708 0.8735041
-3.6603124 -1.5420117 0.8735041
-3.461743 -1.6375635 0.8735041
-3.254614 -1.7127832 0.8735041
-3.0410058 -1.7669238 0.8735041
-2.8230517 -1.7994336 0.8735041
-2.6029418 -1.8099989 0.8735041
-2.3828783 -1.7985007 0.8735041
-2.1650658 -1.7650579 0.8735041
-1.9516919 -1.7100089 0.8735041
-1.7448877 -1.6339031 0.8735041
-1.5467285 -1.5375046 0.8735041
-1.3591943 -1.4217765 0.8735041
-1.1841748 -1.2878815 0.8735041
-1.023418 -1.1371602 0.8735041
-0.8785327 -0.97112244 0.8735041
-0.7509741 -0.791432 0.8735041
-0.6420166 -0.59988755 0.8735041
-0.5527563 -0.3984111 0.8735041
-0.48408446 -0.1890216 0.8735041
-0.43669188 0.02618515 0.8735041
-0.41104978 0.24505217 0.8735041
-0.40741697 0.46538574 0.8735041
-0.42582762 0.68497556 0.8735041
-0.46610594 0.9016308 0.8735041
-0.5278369 1.113169 0.8735041
-0.61040527 1.3174804 0.8735041
-0.71298826 1.5125097 0.8735041
-0.8345556 1.6963086 0.8735041
-0.9738891 1.8670312 0.8735041
-1.1295898 2.0229688 0.8735041
-1.3001025 2.1625633 0.8735041
-1.4837158 2.284409 0.8735041
-1.6785889 2.387285 0.8735041
-1.8827734 2.4701707 0.8735041
-2.094221 2.5322216 0.8735041
-2.3108106 2.572822 0.8735041
-2.530376 2.5915723 0.8735041
-2.7507176 2.5882714 0.8735041
-2.969619 2.5629687 0.8735041
-3.1848974 2.5158985 0.8735041
-3.3943944 2.4475439 0.8735041
-3.5960057 2.3585887 0.8735041
-3.7877147 2.2499218 0.8735041
-3.9675975 2.1226416 0.8735041
-4.1338573 1.9780078 0.8735041
-4.284824 1.8174804 0.8735041
-4.4189844 1.6426611 0.8735041
-4.534995 1.4553076 0.8735041
-4.359907 1.4181836 0.8735041
-4.4537745 1.2378613 0.8735041
-4.5291452 1.0490576 0.8735041
-4.5852585 0.8536621 0.8735041
-4.6215577 0.6536377 0.8735041
-4.6376805 0.45098633 0.8735041
-4.633462 0.24774902 0.8735041
-4.60894 0.04594238 0.8735041
-4.56437 -0.15240234 0.8735041
-4.5002003 -0.34530273 0.8735041
-4.4170604 -0.53081053 0.8735041
-4.315791 -0.70708495 0.8735041
-4.1974072 -0.8723486 0.8735041
-4.0630956 -1.024956 0.8735041
-3.914199 -1.1633643 0.8735041
-3.7522118 -1.2861962 0.8735041
-3.5787597 -1.3922168 0.8735041
-3.3955712 -1.4803662 0.8735041
-3.204492 -1.5497558 0.8735041
-3.0074315 -1.5997021 0.8735041
-2.8063622 -1.6296972 0.8735041
-2.6033056 -1.639441 0.8735041
-2.4002929 -1.6288329 0.8735041
-2.1993554 -1.5979817 0.8735041
-2.0025098 -1.5471982 0.8735041
-1.8117285 -1.4769882 0.8735041
-1.6289233 -1.3880578 0.8735041
-1.455918 -1.2812964 0.8735041
-1.294458 -1.1577742 0.8735041
-1.1461548 -1.0187302 0.8735041
-1.012495 -0.8655557 0.8735041
-0.8948193 -0.6997872 0.8735041
-0.7943042 -0.52308255 0.8735041
-0.711958 -0.33721572 0.8735041
-0.64860594 -0.14404815 0.8735041
-0.6048852 0.054485016 0.8735041
-0.58123046 0.25639555 0.8735041
-0.5778784 0.4596582 0.8735041
-0.5948657 0.66223633 0.8735041
-0.6320215 0.8621045 0.8735041
-0.68896973 1.0572559 0.8735041
-0.7651416 1.2457324 0.8735041
-0.8597778 1.4256543 0.8735041
-0.9719263 1.59521 0.8735041
-1.1004639 1.7527099 0.8735041
-1.244104 1.8965673 0.8735041
-1.4014038 2.0253465 0.8735041
-1.570791 2.137754 0.8735041
-1.7505689 2.232661 0.8735041
-1.938933 2.3091211 0.8735041
-2.1339989 2.366367 0.8735041
-2.333806 2.4038231 0.8735041
-2.5363622 2.421118 0.8735041
-2.7396288 2.418076 0.8735041
-2.9415772 2.3947313 0.8735041
-3.1401758 2.3513086 0.8735041
-3.3334422 2.2882519 0.8735041
-3.5194335 2.2061865 0.8735041
-3.696289 2.1059422 0.8735041
-3.8622363 1.9885156 0.8735041
-4.015615 1.8550928 0.8735041
-4.154883 1.706997 0.8735041
-4.278652 1.5457275 0.8735041
-4.3856735 1.3728857 0.8735041
-4.2289157 1.3414307 0.8735041
-4.3157616 1.174585 0.8735041
-4.385503 0.9998974 0.8735041
-4.437417 0.8191113 0.8735041
-4.471006 0.634043 0.8735041
-4.485923 0.4465381 0.8735041
-4.4820166 0.25850096 0.8735041
-4.459336 0.071767576 0.8735041
-4.4180956 -0.11174805 0.8735041
-4.3587155 -0.29021484 0.8735041
-4.2817917 -0.4618701 0.8735041
-4.1880956 -0.6249658 0.8735041
-4.078564 -0.7778662 0.8735041
-3.9542918 -0.9190674 0.8735041
-3.8165233 -1.0471289 0.8735041
-3.6666503 -1.1607764 0.8735041
-3.506162 -1.258872 0.8735041
-3.33667 -1.3404297 0.8735041
-3.159873 -1.4046435 0.8735041
-2.9775438 -1.4508495 0.8735041
-2.791504 -1.4785986 0.8735041
-2.6036303 -1.4876187 0.8735041
-2.4157934 -1.477804 0.8735041
-2.229878 -1.449259 0.8735041
-2.0477464 -1.4022717 0.8735041
-1.871228 -1.3373109 0.8735041
-1.7020849 -1.2550286 0.8735041
-1.5420166 -1.1562475 0.8735041
-1.3926245 -1.0419592 0.8735041
-1.2554101 -0.91330993 0.8735041
-1.1317432 -0.77158606 0.8735041
-1.0228614 -0.61821026 0.8735041
-0.9298633 -0.45471495 0.8735041
-0.85367185 -0.28274277 0.8735041
-0.79505616 -0.1040155 0.8735041
-0.75460446 0.0796762 0.8735041
-0.7327173 0.26649275 0.8735041
-0.72961426 0.45455566 0.8735041
-0.745332 0.64199704 0.8735041
-0.77970946 0.8269189 0.8735041
-0.83240235 1.0074805 0.8735041
-0.90288085 1.1818701 0.8735041
-0.9904394 1.3483447 0.8735041
-1.0942041 1.5052295 0.8735041
-1.2131348 1.6509472 0.8735041
-1.3460351 1.7840527 0.8735041
-1.4915771 1.9032031 0.8735041
-1.6483008 2.0072021 0.8735041
-1.8146411 2.0950196 0.8735041
-1.9889233 2.1657617 0.8735041
-2.1694043 2.2187304 0.8735041
-2.3542798 2.2533886 0.8735041
-2.5416918 2.2693896 0.8735041
-2.7297657 2.266577 0.8735041
-2.9166162 2.2449756 0.8735041
-3.100366 2.204795 0.8735041
-3.2791796 2.146455 0.8735041
-3.4512744 2.0705273 0.8735041
-3.6149023 1.9777734 0.8735041
-3.7684472 1.869126 0.8735041
-3.9103563 1.7456787 0.8735041
-4.0392184 1.6086524 0.8735041
-4.153735 1.4594384 0.8735041
-4.2527537 1.2995214 0.8735041
-4.111289 1.2725097 0.8735041
-4.1918454 1.1177685 0.8735041
-4.2565184 0.95575196 0.8735041
-4.304668 0.78808594 0.8735041
-4.33582 0.6164404 0.8735041
-4.3496532 0.44254392 0.8735041
-4.346035 0.26813963 0.8735041
-4.324995 0.094960935 0.8735041
-4.286748 -0.075239256 0.8735041
-4.2316794 -0.2407666 0.8735041
-4.1603317 -0.39995605 0.8735041
-4.073437 -0.5512158 0.8735041
-3.9718504 -0.6930371 0.8735041
-3.8565917 -0.8239892 0.8735041
-3.7288232 -0.94275874 0.8735041
-3.5898192 -1.0481591 0.87350416
-3.4409716 -1.1391406 0.8735041
-3.2837791 -1.2147851 0.8735041
-3.1198094 -1.274331 0.8735041
-2.950708 -1.3171923 0.8735041
-2.778169 -1.3429296 0.8735041
-2.603921 -1.3512917 0.8735041
-2.4297142 -1.3421892 0.8735041
-2.257285 -1.3157152 0.8735041
-2.0883667 -1.2721366 0.8735041
-1.9246533 -1.2118888 0.8735041
-1.7677855 -1.1355759 0.8735041
-1.6193286 -1.0439616 0.8735041
-1.4807763 -0.9379655 0.8735041
-1.3535131 -0.8186486 0.8735041
-1.2388183 -0.6872069 0.8735041
-1.1378393 -0.5449585 0.8735041
-1.0515845 -0.39332488 0.8735041
-0.9809228 -0.23382919 0.8735041
-0.92656004 -0.06806869 0.8735041
-0.8890405 0.102296144 0.8735041
-0.8687402 0.27555922 0.8735041
-0.86586666 0.44997558 0.8735041
-0.8804419 0.62381834 0.8735041
-0.9123242 0.7953271 0.8735041
-0.9611938 0.96279293 0.8735041
-1.0265601 1.1245264 0.8735041
-1.1077685 1.2789209 0.8735041
-1.2040063 1.4244238 0.8735041
-1.3143041 1.5595752 0.8735041
-1.4375659 1.6830224 0.8735041
-1.5725487 1.7935302 0.8735041
-1.7179028 1.8899853 0.8735041
-1.8721703 1.9714258 0.8735041
-2.0338085 2.037041 0.8735041
-2.2011986 2.086162 0.8735041
-2.3726587 2.1183057 0.8735041
-2.5464745 2.1331444 0.8735041
-2.7209032 2.130537 0.8735041
-2.8941991 2.110503 0.8735041
-3.064619 2.0732422 0.8735041
-3.2304637 2.0191307 0.8735041
-3.3900633 1.9487109 0.8735041
-3.541826 1.8626903 0.87350416
-3.6842334 1.7619238 0.8735041
-3.8158495 1.6474267 0.8735041
-3.9353564 1.5203466 0.8735041
-4.0415626 1.381958 0.8735041
-4.1334033 1.2336426 0.8735041
-4.0048485 1.2101367 0.8735041
-4.0796924 1.0663525 0.8735041
-4.1397853 0.91580564 0.873504
-4.184531 0.76000977 0.8735041
-4.2134767 0.6005176 0.8735041
-4.226333 0.43892577 0.8735041
-4.2229686 0.276875 0.8735041
-4.203418 0.11595215 0.8735041
-4.167876 -0.04219238 0.873504
-4.1167088 -0.19600098 0.8735041
-4.050415 -0.34392577 0.873504
-3.969668 -0.48447752 0.8735041
-3.8752735 -0.61625975 0.8735041
-3.7681737 -0.7379394 0.873504
-3.649453 -0.84830564 0.8735041
-3.5202832 -0.94624996 0.8735041
-3.3819776 -1.0307813 0.873504
-3.235913 -1.1010693 0.8735041
-3.0835497 -1.1564014 0.873504
-2.926421 -1.1962255 0.8735041
-2.7660937 -1.2201464 0.8735041
-2.6041846 -1.2279166 0.8735041
-2.4423096 -1.2194583 0.8735041
-2.2820873 -1.1948588 0.873504
-2.1251295 -1.154365 0.873504
-1.9730053 -1.0983819 0.8735041
-1.8272412 -1.0274715 0.8735041
-1.6892943 -0.94234335 0.873504
-1.5605493 -0.84385055 0.8735041
-1.4422973 -0.7329811 0.8735041
-1.3357227 -0.61084473 0.8735041
-1.2418896 -0.47866607 0.8735041
-1.1617432 -0.33776718 0.8735041
-1.096084 -0.18956268 0.8735041
-1.0455688 -0.035536956 0.8735041
-1.0107056 0.12276733 0.8735041
-0.9918432 0.28376463 0.8735041
-0.98917234 0.44583982 0.8735041
-1.0027149 0.6073682 0.8735041
-1.0323412 0.76673824 0.8735041
-1.0777514 0.92234373 0.873504
-1.1384912 1.0726318 0.8735041
-1.2139478 1.2160985 0.8735041
-1.303374 1.3512939 0.8735041
-1.4058642 1.4768798 0.8735041
-1.5203955 1.5915868 0.873504
-1.6458228 1.6942724 0.8735041
-1.7808911 1.7839013 0.8735041
-1.9242382 1.8595752 0.8735041
-2.0744336 1.920542 0.873504
-2.229973 1.9661914 0.8735041
-2.3892944 1.9960546 0.8735041
-2.5508056 2.0098436 0.873504
-2.7128856 2.0074217 0.8735041
-2.8739061 1.9888036 0.8735041
-3.0322657 1.9541796 0.8735041
-3.186372 1.9039013 0.8735041
-3.3346777 1.8384668 0.8735041
-3.4756982 1.7585351 0.8735041
-3.6080174 1.6649023 0.8735041
-3.7303123 1.5585155 0.8735041
-3.8413622 1.4404297 0.8735041
-3.9400537 1.3118359 0.8735041
-4.0253906 1.1740185 0.8735041
-3.9078271 1.153291 0.8735041
-3.9774754 1.0194873 0.8735041
-4.033398 0.8793994 0.8735041
-4.075039 0.73441404 0.8735041
-4.101968 0.5859961 0.8735041
-4.1139307 0.43562987 0.8735041
-4.1108007 0.2848291 0.8735041
-4.0926075 0.135083 0.8735041
-4.0595407 -0.012084961 0.8735041
-4.011924 -0.15521485 0.8735041
-3.9502294 -0.2928662 0.8735041
-3.8750877 -0.42365232 0.8735041
-3.787251 -0.546289 0.8735041
-3.6875927 -0.6595166 0.8735041
-3.5771093 -0.7622168 0.8735041
-3.456914 -0.85335934 0.8735041
-3.328208 -0.9320312 0.8735041
-3.19229 -0.99743164 0.8735041
-3.0505028 -1.0489209 0.8735041
-2.904287 -1.0859814 0.8735041
-2.7550926 -1.1082422 0.8735041
-2.6044238 -1.1154699 0.8735041
-2.453789 -1.1075985 0.8735041
-2.3046923 -1.0847071 0.8735041
-2.1586328 -1.0470252 0.8735041
-2.0170727 -0.9949298 0.8735041
-1.8814281 -0.92894346 0.8735041
-1.7530615 -0.849726 0.8735041
-1.6332568 -0.75807256 0.8735041
-1.5232178 -0.6549016 0.8735041
-1.4240429 -0.5412462 0.8735041
-1.3367261 -0.41824567 0.8735041
-1.2621435 -0.28713056 0.8735041
-1.2010424 -0.14921692 0.8735041
-1.1540356 -0.005886688 0.8735041
-1.1215942 0.14142533 0.8735041
-1.1040405 0.291243 0.8735041
-1.1015551 0.44206053 0.8735041
-1.1141602 0.5923779 0.8735041
-1.1417285 0.74067867 0.8735041
-1.1839844 0.8854785 0.8735041
-1.2405053 1.025332 0.8735041
-1.3107251 1.158833 0.8735041
-1.3939404 1.2846484 0.8735041
-1.489314 1.4015088 0.8735041
-1.5958935 1.5082519 0.8735041
-1.7126123 1.6038036 0.8735041
-1.8382958 1.687207 0.8735041
-1.9716918 1.7576318 0.8735041
-2.11146 1.8143651 0.8735041
-2.2561963 1.8568407 0.8735041
-2.404458 1.8846387 0.8735041
-2.554751 1.8974707 0.8735041
-2.705581 1.8952099 0.8735041
-2.8554199 1.8778857 0.8735041
-3.002783 1.8456689 0.8735041
-3.1461864 1.7988769 0.8735041
-3.2841942 1.7379931 0.8735041
-3.4154198 1.6636034 0.8735041
-3.5385547 1.5764745 0.8735041
-3.6523583 1.4774755 0.8735041
-3.7556982 1.3675878 0.8735041
-3.8475342 1.2479248 0.8735041
-3.926948 1.1196826 0.8735041
-3.818828 1.1011425 0.8735041
-3.8837109 0.9765039 0.87350416
-3.9358056 0.8459961 0.87350416
-3.9745898 0.7109424 0.87350416
-3.9996824 0.57268065 0.8735041
-4.010825 0.4326074 0.8735041
-4.0079103 0.292124 0.87350416
-3.9909668 0.1526416 0.87350416
-3.9601562 0.015541992 0.87350416
-3.9157958 -0.117792964 0.87350416
-3.8583348 -0.24602538 0.8735041
-3.7883348 -0.3678662 0.8735041
-3.7065039 -0.4820947 0.87350416
-3.613667 -0.58757323 0.87350416
-3.510747 -0.683247 0.8735041
-3.3987842 -0.7681494 0.8735041
-3.2788866 -0.84143066 0.87350416
-3.1522655 -0.90236324 0.87350416
-3.0201905 -0.950332 0.87350416
-2.8839793 -0.9848535 0.87350416
-2.745 -1.0055761 0.87350416
-2.604646 -1.0123199 0.87350416
-2.4643188 -1.0049876 0.87350416
-2.3254297 -0.9836631 0.87350416
-2.1893675 -0.94856024 0.87350416
-2.0575 -0.90003085 0.87350416
-1.9311401 -0.8385615 0.8735041
-1.8115575 -0.7647665 0.8735041
-1.6999536 -0.67938673 0.8735041
-1.5974462 -0.5832777 0.87350416
-1.5050585 -0.47740218 0.87350416
-1.4237207 -0.3628212 0.87350416
-1.3542432 -0.24068053 0.873504
-1.2973242 -0.11220749 0.87350416
-1.2535352 0.021312103 0.87350416
-1.2233154 0.15854034 0.87350416
-1.2069653 0.29810318 0.87350416
-1.204646 0.43859375 0.87350416
-1.2163892 0.57862306 0.87350416
-1.2420703 0.71677244 0.87350416
-1.2814355 0.851665 0.8735041
-1.3340869 0.9819433 0.87350416
-1.3994995 1.1063037 0.8735041
-1.4770166 1.2235059 0.87350416
-1.5658642 1.3323681 0.8735041
-1.6651465 1.4318115 0.87350416
-1.7738794 1.5208203 0.87350416
-1.8909594 1.5985156 0.8735041
-2.0152245 1.664121 0.87350416
-2.1454222 1.7169677 0.87350416
-2.280254 1.7565331 0.87350416
-2.4183643 1.7824267 0.87350416
-2.558374 1.7943798 0.87350416
-2.6988769 1.7922802 0.87350416
-2.8384619 1.7761426 0.87350416
-2.9757373 1.7461327 0.87350416
-3.109321 1.7025439 0.87350416
-3.2378807 1.6458203 0.87350416
-3.360127 1.5765283 0.8735041
-3.474834 1.4953613 0.8735041
-3.5808496 1.4031347 0.87350416
-3.6771142 1.3007764 0.87350416
-3.762661 1.1893017 0.8735041
-3.8366356 1.069834 0.87350416
-3.7367089 1.0530224 0.8735041
-3.7971826 0.93683106 0.8735041
-3.8457518 0.8151758 0.8735041
-3.8819091 0.68927735 0.8735041
-3.9052978 0.5603955 0.8735041
-3.9156835 0.42981932 0.8735041
-3.9129639 0.29886717 0.8735041
-3.897168 0.168833 0.8735041
-3.868452 0.041035157 0.8735041
-3.8270996 -0.08326171 0.8735041
-3.7735302 -0.20279296 0.8735041
-3.7082763 -0.31637695 0.8735041
-3.6319969 -0.4228613 0.8735041
-3.5454588 -0.5211963 0.8735041
-3.4495115 -0.61037594 0.8735041
-3.3451366 -0.6895215 0.8735041
-3.233379 -0.75784177 0.8735041
-3.1153417 -0.8146338 0.8735041
-2.9922168 -0.85935056 0.8735041
-2.8652442 -0.8915283 0.8735041
-2.7356884 -0.91085935 0.8735041
-2.6048486 -0.91713756 0.8735041
-2.4740381 -0.910303 0.8735041
-2.3445654 -0.89042395 0.8735041
-2.217727 -0.8577017 0.8735041
-2.0947998 -0.8124627 0.8735041
-1.9770092 -0.7551608 0.8735041
-1.865537 -0.68636924 0.8735041
-1.7614989 -0.6067787 0.8735041
-1.6659423 -0.5171866 0.8735041
-1.5798193 -0.41848952 0.8735041
-1.5039965 -0.31167755 0.8735041
-1.4392285 -0.19781876 0.8735041
-1.3861694 -0.078056484 0.8735041
-1.3453491 0.04640976 0.8735041
-1.3171777 0.1743335 0.8735041
-1.301936 0.30443344 0.8735041
-1.2997754 0.43540037 0.8735041
-1.3107226 0.56593746 0.8735041
-1.3346606 0.69471675 0.8735041
-1.3713574 0.82045895 0.8735041
-1.420437 0.94190913 0.8735041
-1.481416 1.0578369 0.8735041
-1.5536767 1.1670947 0.8735041
-1.6364989 1.2685742 0.8735041
-1.7290527 1.3612646 0.8735041
-1.8304101 1.4442431 0.8735041
-1.9395531 1.5166699 0.8735041
-2.0553906 1.5778271 0.8735041
-2.1767626 1.6270947 0.8735041
-2.3024535 1.6639745 0.8735041
-2.4311986 1.6881152 0.8735041
-2.5617137 1.6992577 0.8735041
-2.6926856 1.6972997 0.8735041
-2.8228123 1.6822559 0.8735041
-2.950781 1.6542773 0.8735041
-3.0753076 1.6136475 0.8735041
-3.1951463 1.5607715 0.8735041
-3.3091016 1.4961767 0.8735041
-3.4160352 1.4205127 0.8735041
-3.5148582 1.3345459 0.8735041
-3.6045995 1.2391211 0.8735041
-3.6843457 1.1352001 0.8735041
-3.7533057 1.0238379 0.8735041
-3.6605077 1.0083789 0.8735041
-3.7169092 0.9000244 0.8735041
-3.7621922 0.786582 0.8735041
-3.795913 0.6691797 0.8735041
-3.8177245 0.5489941 0.8735041
-3.8274121 0.42722654 0.8735041
-3.8248777 0.3051172 0.8735041
-3.8101463 0.18385741 0.8735041
-3.783364 0.06467285 0.8735041
-3.7448046 -0.051225584 0.8735041
-3.6948485 -0.16269043 0.8735041
-3.6339989 -0.2686084 0.8735041
-3.562871 -0.36791015 0.8735041
-3.482168 -0.45959958 0.8735041
-3.3927002 -0.54276854 0.8735041
-3.295371 -0.61657226 0.8735041
-3.1911473 -0.6802783 0.8735041
-3.081079 -0.73324704 0.8735041
-2.9662645 -0.7749414 0.8735041
-2.8478563 -0.8049414 0.8735041
-2.7270458 -0.8229687 0.8735041
-2.6050365 -0.82882667 0.8735041
-2.4830542 -0.82245296 0.8735041
-2.3623192 -0.8039153 0.8735041
-2.2440429 -0.7734011 0.8735041
-2.129409 -0.73121536 0.8735041
-2.0195677 -0.6777808 0.8735041
-1.9156176 -0.6136316 0.8735041
-1.818601 -0.5394122 0.8735041
-1.7294922 -0.45586622 0.8735041
-1.6491797 -0.3638298 0.8735041
-1.5784765 -0.26422593 0.8735041
-1.5180786 -0.15805098 0.8735041
-1.468601 -0.046371 0.8735041
-1.4305371 0.06969589 0.8735041
-1.404265 0.18898666 0.8735041
-1.3900512 0.3103067 0.8735041
-1.3880371 0.43243653 0.8735041
-1.3982446 0.5541553 0.8735041
-1.4205688 0.67424804 0.8735041
-1.4547851 0.7915088 0.8735041
-1.5005566 0.9047607 0.8735041
-1.5574194 1.012871 0.8735041
-1.6248046 1.114751 0.8735041
-1.7020385 1.2093847 0.8735041
-1.7883447 1.2958202 0.8735041
-1.8828613 1.3731983 0.8735041
-1.9846411 1.4407372 0.8735041
-2.0926611 1.4977636 0.8735041
-2.2058399 1.543711 0.8735041
-2.323047 1.5781054 0.8735041
-2.4431055 1.6006103 0.8735041
-2.564812 1.6110009 0.8735041
-2.6869483 1.6091747 0.8735041
-2.808291 1.5951464 0.8735041
-2.927617 1.5690576 0.8735041
-3.043745 1.5311669 0.8735041
-3.155498 1.4818603 0.8735041
-3.2617674 1.421626 0.8735041
-3.3614795 1.3510644 0.8735041
-3.4536376 1.2708936 0.8735041
-3.5373192 1.1819141 0.8735041
-3.6116846 1.0850097 0.8735041
-3.675991 0.9811621 0.8735041
