ply
format ascii 1.0
comment VCGLIB generated
element vertex 64
property float x
property float y
property float z
end_header
-6.536997 2.693828 0.8735041
-6.747485 2.2894628 0.8735041
-6.916494 1.8660791 0.8735041
-7.042329 1.4279248 0.8735041
-7.1237354 0.97937983 0.8735041
-7.1598825 0.5249463 0.8735041
-7.1504245 0.06918457 0.8735041
-7.095444 -0.38335449 0.8735041
-6.9954977 -0.8281348 0.8735041
-6.851587 -1.2606933 0.8735041
-6.665156 -1.6766943 0.8735041
-6.4380665 -2.0719774 0.8735041
-6.172602 -2.442573 0.8735041
-5.871411 -2.7847753 0.8735041
-5.5375195 -3.0951512 0.8735041
-5.1742773 -3.3705957 0.8735041
-4.785312 -3.6083398 0.8735041
-4.3745313 -3.8060107 0.8735041
-3.946045 -3.961621 0.8735041
-3.5041454 -4.073618 0.8735041
-3.0532618 -4.140874 0.8735041
-2.5979173 -4.162715 0.8735041
-2.1426733 -4.138931 0.8735041
-1.69208 -4.069746 0.8735041
-1.2506689 -3.9558642 0.8735041
-0.82285154 -3.7984276 0.8735041
-0.41291746 -3.5990038 0.8735041
-0.02496826 -3.3595996 0.8735041
0.3370996 -3.0826073 0.8735041
0.66965944 -2.7708106 0.8735041
0.9693823 -2.427324 0.8735041
1.2332641 -2.0555956 0.8735041
1.4586645 -1.6593541 0.8735041
1.6433203 -1.2425575 0.8735041
1.785382 -0.8093911 0.8735041
1.8834264 -0.3641919 0.8735041
1.9364709 0.08858093 0.8735041
1.9439856 0.5443848 0.8735041
1.9058948 0.9986621 0.8735041
1.8225806 1.4468505 0.8735041
1.6948743 1.8844677 0.8735041
1.5240588 2.3071191 0.8735041
1.3118445 2.710581 0.8735041
1.0603577 3.0908055 0.8735041
0.7721191 3.4439843 0.8735041
0.4500195 3.766582 0.8735041
0.09727783 4.0553513 0.8735041
-0.28256348 4.307417 0.8735041
-0.6857031 4.520244 0.8735041
-1.1081005 4.691704 0.8735041
-1.5455176 4.820073 0.8735041
-1.9935839 4.9040723 0.8735041
-2.4478002 4.9428515 0.8735041
-2.9036133 4.9360304 0.8735041
-3.3564696 4.8836718 0.8735041
-3.8018162 4.7863083 0.8735041
-4.2352 4.644902 0.8735041
-4.652275 4.460879 0.8735041
-5.048867 4.236084 0.8735041
-5.420996 3.9727635 0.8735041
-5.7649317 3.6735692 0.8735041
-6.077236 3.3414793 0.8735041
-6.35478 2.9798338 0.8735041
-6.59478 2.5922508 0.8735041
